<svg width="200" height="60" viewBox="0 0 200 60" xmlns="http://www.w3.org/2000/svg">
  <!-- Background -->
  <rect width="200" height="60" fill="#1a1a1a" rx="8"/>
  
  <!-- Icon Container -->
  <g transform="translate(8, 8)">
    <!-- Toll Booth Structure -->
    <rect x="2" y="8" width="20" height="24" fill="#fbbf24" rx="2"/>
    <rect x="4" y="10" width="16" height="20" fill="#f59e0b" rx="1"/>
    
    <!-- Road -->
    <rect x="0" y="32" width="24" height="8" fill="#6b7280"/>
    <rect x="0" y="36" width="24" height="2" fill="#9ca3af"/>
    
    <!-- Blockchain Blocks -->
    <rect x="28" y="12" width="8" height="8" fill="#3b82f6" rx="1"/>
    <rect x="38" y="8" width="8" height="8" fill="#3b82f6" rx="1"/>
    <rect x="48" y="12" width="8" height="8" fill="#3b82f6" rx="1"/>
    <rect x="33" y="22" width="8" height="8" fill="#1d4ed8" rx="1"/>
    <rect x="43" y="18" width="8" height="8" fill="#1d4ed8" rx="1"/>
    
    <!-- Connection Lines -->
    <line x1="36" y1="16" x2="38" y2="16" stroke="#3b82f6" stroke-width="1"/>
    <line x1="46" y1="12" x2="48" y2="12" stroke="#3b82f6" stroke-width="1"/>
    <line x1="41" y1="20" x2="43" y2="20" stroke="#1d4ed8" stroke-width="1"/>
    <line x1="51" y1="16" x2="53" y2="16" stroke="#1d4ed8" stroke-width="1"/>
  </g>
  
  <!-- Text -->
  <text x="70" y="25" font-family="Inter, -apple-system, BlinkMacSystemFont, sans-serif" font-size="18" font-weight="700" fill="#ffffff">
    Toll Crypt
  </text>
  <text x="70" y="42" font-family="Inter, -apple-system, BlinkMacSystemFont, sans-serif" font-size="12" font-weight="400" fill="#9ca3af">
    Blockchain Toll Collection
  </text>
</svg>